<?xml version="1.0" encoding="UTF-8"?>
<!DOCTYPE svg PUBLIC "-//W3C//DTD SVG 1.1//EN" "http://www.w3.org/Graphics/SVG/1.1/DTD/svg11.dtd">
<!-- Creator: CorelDRAW 2019 (64-Bit Not for commercial use) -->
<svg xmlns="http://www.w3.org/2000/svg" xml:space="preserve" width="268px" height="317px" version="1.1" style="shape-rendering:geometricPrecision; text-rendering:geometricPrecision; image-rendering:optimizeQuality; fill-rule:evenodd; clip-rule:evenodd"
viewBox="0 0 22.41 26.55"
 xmlns:xlink="http://www.w3.org/1999/xlink"
 xmlns:xodm="http://www.corel.com/coreldraw/odm/2003">
 <defs>
  <style type="text/css">
   <![CDATA[
    .fil0 {fill:none}
    .fil3 {fill:#006699}
    .fil1 {fill:#339966}
    .fil2 {fill:#990000}
   ]]>
  </style>
 </defs>
 <g id="Layer_x0020_1">
  <metadata id="CorelCorpID_0Corel-Layer"/>
  <rect class="fil0" width="22.41" height="26.55"/>
  <g id="_1858934247840">
   <path class="fil1" d="M11.21 3.08c3.37,0 6.19,2.33 6.95,5.46 -3.11,0.34 -5.74,2.3 -7.03,5.01 -1.26,-2.67 -3.83,-4.61 -6.87,-4.99 0.75,-3.14 3.57,-5.48 6.95,-5.48z"/>
   <path class="fil2" d="M10.01 16.99c-3.68,-0.11 -6.8,-2.94 -7.17,-6.7 3.68,0.11 6.8,2.94 7.17,6.7z"/>
   <path class="fil3" d="M12.64 18.2c3.66,-0.86 6.54,-3.96 6.93,-7.91 -4.38,0.13 -8.1,3.43 -8.69,7.86l-0.81 5.32 3.38 0 -0.81 -5.27z"/>
  </g>
 </g>
</svg>
