<?xml version="1.0" encoding="UTF-8"?>
<!DOCTYPE svg PUBLIC "-//W3C//DTD SVG 1.1//EN" "http://www.w3.org/Graphics/SVG/1.1/DTD/svg11.dtd">
<!-- Creator: CorelDRAW 2019 (64-Bit Not for commercial use) -->
<svg xmlns="http://www.w3.org/2000/svg" xml:space="preserve" width="762px" height="317px" version="1.1" style="shape-rendering:geometricPrecision; text-rendering:geometricPrecision; image-rendering:optimizeQuality; fill-rule:evenodd; clip-rule:evenodd"
viewBox="0 0 196.72 81.91"
 xmlns:xlink="http://www.w3.org/1999/xlink"
 xmlns:xodm="http://www.corel.com/coreldraw/odm/2003">
 <defs>
  <style type="text/css">
   <![CDATA[
    .fil4 {fill:none}
    .fil3 {fill:#006699}
    .fil1 {fill:#339966}
    .fil2 {fill:#990000}
    .fil0 {fill:#332C2B;fill-rule:nonzero}
   ]]>
  </style>
 </defs>
 <g id="Layer_x0020_1">
  <metadata id="CorelCorpID_0Corel-Layer"/>
  <g id="_1858925799760">
   <path class="fil0" d="M90.92 50.04l-3.97 -11.67 -1.33 0 -4.04 11.61 -3.89 -11.61 -1.47 0 4.55 13.5 1.49 0 3.98 -11.52 3.95 11.52 1.51 0 4.55 -13.5 -1.37 0 -3.96 11.67zm8.28 -10.54c0.58,0 1.01,-0.44 1.01,-1 0,-0.52 -0.45,-0.94 -1.01,-0.94 -0.56,0 -1,0.44 -1,0.96 0,0.54 0.44,0.98 1,0.98zm0.68 12.37l0 -10.15 -1.37 0 0 10.15 1.37 0zm13.35 0l-4.75 -6 4.35 -4.15 -1.7 0 -6.06 5.54 0 -9.7 -1.37 0 0 14.31 1.37 0 0 -2.89 2.39 -2.2 4.09 5.09 1.68 0zm2.76 -12.37c0.58,0 1,-0.44 1,-1 0,-0.52 -0.44,-0.94 -1,-0.94 -0.56,0 -1,0.44 -1,0.96 0,0.54 0.44,0.98 1,0.98zm0.68 12.37l0 -10.15 -1.37 0 0 10.15 1.37 0zm16.48 -10.22c-1.84,0 -3.28,0.83 -4.02,2.14 -0.62,-1.43 -1.93,-2.14 -3.61,-2.14 -1.69,0 -3.01,0.71 -3.72,1.93l0 -1.86 -1.31 0 0 10.15 1.37 0 0 -5.32c0,-2.32 1.33,-3.67 3.39,-3.67 1.86,0 2.94,1.1 2.94,3.24l0 5.75 1.37 0 0 -5.32c0,-2.32 1.31,-3.67 3.39,-3.67 1.84,0 2.92,1.1 2.92,3.24l0 5.75 1.37 0 0 -5.88c0,-2.92 -1.62,-4.34 -4.09,-4.34zm16.67 5.15c0,-3.05 -2.07,-5.15 -4.92,-5.15 -2.86,0 -4.96,2.14 -4.96,5.15 0,3.01 2.16,5.17 5.32,5.17 1.61,0 3.01,-0.58 3.92,-1.66l-0.77 -0.89c-0.77,0.89 -1.87,1.33 -3.11,1.33 -2.22,0 -3.84,-1.4 -3.99,-3.53l8.49 0c0,-0.15 0.02,-0.31 0.02,-0.42zm-4.92 -3.98c1.99,0 3.43,1.39 3.61,3.38l-7.2 0c0.17,-1.99 1.62,-3.38 3.59,-3.38zm15.61 0.83c-0.85,-1.31 -2.24,-2 -3.86,-2 -2.9,0 -5.06,2.08 -5.06,5.15 0,3.07 2.16,5.17 5.06,5.17 1.68,0 3.09,-0.73 3.92,-2.1l0 2 1.31 0 0 -14.31 -1.37 0 0 6.09zm-3.74 7.1c-2.17,0 -3.79,-1.58 -3.79,-3.95 0,-2.37 1.62,-3.96 3.79,-3.96 2.14,0 3.76,1.59 3.76,3.96 0,2.37 -1.62,3.95 -3.76,3.95zm9.62 -11.25c0.58,0 1.01,-0.44 1.01,-1 0,-0.52 -0.45,-0.94 -1.01,-0.94 -0.56,0 -1,0.44 -1,0.96 0,0.54 0.44,0.98 1,0.98zm0.68 12.37l0 -10.15 -1.37 0 0 10.15 1.37 0zm7.37 -10.22c-1.6,0 -3.11,0.5 -4.13,1.37l0.62 1.02c0.83,-0.73 2.06,-1.2 3.38,-1.2 1.89,0 2.87,0.95 2.87,2.69l0 0.61 -3.22 0c-2.92,0 -3.92,1.32 -3.92,2.88 0,1.75 1.41,2.95 3.71,2.95 1.68,0 2.87,-0.64 3.49,-1.68l0 1.58 1.31 0 0 -6.29c0,-2.62 -1.48,-3.93 -4.11,-3.93zm-0.48 9.24c-1.62,0 -2.57,-0.73 -2.57,-1.91 0,-1.04 0.64,-1.81 2.61,-1.81l3.18 0 0 1.66c-0.54,1.33 -1.68,2.06 -3.22,2.06zm-94.83 21.74l0 -13.51 -1.42 0 0 13.51 1.42 0zm9.29 -10.23c-1.76,0 -3.13,0.72 -3.86,1.95l0 -1.87 -1.32 0 0 10.15 1.37 0 0 -5.33c0,-2.31 1.37,-3.66 3.55,-3.66 1.93,0 3.05,1.1 3.05,3.24l0 5.75 1.37 0 0 -5.89c0,-2.91 -1.69,-4.34 -4.16,-4.34zm15.78 2.01c-0.85,-1.31 -2.24,-2.01 -3.86,-2.01 -2.89,0 -5.05,2.09 -5.05,5.16 0,3.06 2.16,5.17 5.05,5.17 1.68,0 3.09,-0.74 3.92,-2.11l0 2.01 1.31 0 0 -14.32 -1.37 0 0 6.1zm-3.74 7.1c-2.16,0 -3.79,-1.58 -3.79,-3.95 0,-2.38 1.63,-3.96 3.79,-3.96 2.14,0 3.76,1.58 3.76,3.96 0,2.37 -1.62,3.95 -3.76,3.95zm13.08 1.22c2.97,0 5.15,-2.16 5.15,-5.17 0,-3.02 -2.18,-5.16 -5.15,-5.16 -2.97,0 -5.17,2.14 -5.17,5.16 0,3.01 2.2,5.17 5.17,5.17zm0 -1.22c-2.16,0 -3.78,-1.58 -3.78,-3.95 0,-2.38 1.62,-3.96 3.78,-3.96 2.16,0 3.76,1.58 3.76,3.96 0,2.37 -1.6,3.95 -3.76,3.95zm13.12 -9.11c-1.75,0 -3.12,0.72 -3.86,1.95l0 -1.87 -1.31 0 0 10.15 1.37 0 0 -5.33c0,-2.31 1.37,-3.66 3.55,-3.66 1.93,0 3.05,1.1 3.05,3.24l0 5.75 1.37 0 0 -5.89c0,-2.91 -1.7,-4.34 -4.17,-4.34zm16.75 5.16c0,-3.05 -2.06,-5.16 -4.92,-5.16 -2.86,0 -4.96,2.14 -4.96,5.16 0,3.01 2.16,5.17 5.33,5.17 1.6,0 3.01,-0.58 3.91,-1.66l-0.77 -0.89c-0.77,0.89 -1.87,1.33 -3.1,1.33 -2.22,0 -3.84,-1.41 -4,-3.53l8.49 0c0,-0.15 0.02,-0.31 0.02,-0.42zm-4.92 -3.98c1.99,0 3.44,1.39 3.61,3.38l-7.2 0c0.18,-1.99 1.62,-3.38 3.59,-3.38zm10.44 9.15c2.64,0 4.19,-1.14 4.19,-2.9 0,-3.89 -6.58,-1.83 -6.58,-4.57 0,-0.97 0.81,-1.68 2.64,-1.68 1.04,0 2.1,0.25 2.99,0.87l0.6 -1.1c-0.85,-0.58 -2.28,-0.95 -3.59,-0.95 -2.58,0 -4.01,1.24 -4.01,2.9 0,4.01 6.58,1.93 6.58,4.57 0,1 -0.79,1.66 -2.72,1.66 -1.43,0 -2.8,-0.5 -3.61,-1.14l-0.62 1.08c0.83,0.72 2.45,1.26 4.13,1.26zm7.41 -12.47c0.58,0 1,-0.44 1,-1 0,-0.52 -0.44,-0.95 -1,-0.95 -0.56,0 -1,0.45 -1,0.97 0,0.54 0.44,0.98 1,0.98zm0.68 12.37l0 -10.15 -1.37 0 0 10.15 1.37 0zm7.37 -10.23c-1.6,0 -3.11,0.5 -4.13,1.37l0.62 1.03c0.82,-0.74 2.06,-1.2 3.37,-1.2 1.89,0 2.88,0.94 2.88,2.68l0 0.62 -3.23 0c-2.91,0 -3.91,1.31 -3.91,2.87 0,1.76 1.41,2.96 3.7,2.96 1.68,0 2.88,-0.64 3.5,-1.68l0 1.58 1.31 0 0 -6.29c0,-2.62 -1.49,-3.94 -4.11,-3.94zm-0.49 9.25c-1.62,0 -2.56,-0.74 -2.56,-1.91 0,-1.05 0.64,-1.82 2.6,-1.82l3.19 0 0 1.66c-0.54,1.33 -1.68,2.07 -3.23,2.07zm-73.9 -40.53l-5.93 -7.49 5.6 -6.02 -3.47 0 -5.99 6.31 0 -6.31 -3.1 0 0 13.51 3.1 0 0 -3.42 1.82 -1.89 4.32 5.31 3.65 0zm5.69 0.15c3.3,0 5.69,-2.22 5.69,-5.34 0,-3.13 -2.39,-5.35 -5.69,-5.35 -3.3,0 -5.71,2.22 -5.71,5.35 0,3.12 2.41,5.34 5.71,5.34zm0 -2.47c-1.5,0 -2.66,-1.08 -2.66,-2.87 0,-1.8 1.16,-2.88 2.66,-2.88 1.51,0 2.64,1.08 2.64,2.88 0,1.79 -1.13,2.87 -2.64,2.87zm21 -8.22c-1.57,0 -2.92,0.64 -3.75,1.7 -0.73,-1.14 -1.97,-1.7 -3.41,-1.7 -1.34,0 -2.49,0.46 -3.27,1.35l0 -1.19 -2.87 0 0 10.38 3.01 0 0 -5.21c0,-1.85 0.95,-2.72 2.28,-2.72 1.25,0 1.97,0.77 1.97,2.45l0 5.48 3.01 0 0 -5.21c0,-1.85 0.94,-2.72 2.29,-2.72 1.22,0 1.97,0.77 1.97,2.45l0 5.48 3.01 0 0 -5.95c0,-3.16 -1.77,-4.59 -4.24,-4.59zm14.39 5.29c0,1.91 -1,2.8 -2.39,2.8 -1.33,0 -2.11,-0.77 -2.11,-2.51l0 -5.42 -3.01 0 0 5.86c0,3.21 1.84,4.67 4.44,4.67 1.28,0 2.43,-0.48 3.23,-1.39l0 1.24 2.85 0 0 -10.38 -3.01 0 0 5.13zm12.12 -5.29c-1.41,0 -2.63,0.48 -3.44,1.37l0 -1.21 -2.87 0 0 10.38 3.01 0 0 -5.13c0,-1.92 1.04,-2.8 2.49,-2.8 1.33,0 2.1,0.77 2.1,2.45l0 5.48 3.01 0 0 -5.95c0,-3.16 -1.85,-4.59 -4.3,-4.59zm8.53 -1.29c1.12,0 1.87,-0.73 1.87,-1.74 0,-0.92 -0.75,-1.62 -1.87,-1.62 -1.12,0 -1.87,0.73 -1.87,1.68 0,0.95 0.75,1.68 1.87,1.68zm1.5 11.83l0 -10.38 -3.01 0 0 10.38 3.01 0zm8.69 -2.63c-0.33,0.25 -0.77,0.39 -1.22,0.39 -0.81,0 -1.29,-0.48 -1.29,-1.37l0 -4.23 2.58 0 0 -2.31 -2.58 0 0 -2.53 -3.01 0 0 2.53 -1.6 0 0 2.31 1.6 0 0 4.27c0,2.47 1.43,3.72 3.88,3.72 0.92,0 1.83,-0.21 2.45,-0.65l-0.81 -2.13zm6.69 -7.91c-1.66,0 -3.34,0.45 -4.47,1.26l1.08 2.1c0.75,-0.6 1.89,-0.97 2.99,-0.97 1.62,0 2.39,0.76 2.39,2.05l-2.39 0c-3.17,0 -4.46,1.27 -4.46,3.11 0,1.79 1.45,3.14 3.88,3.14 1.52,0 2.6,-0.5 3.16,-1.44l0 1.29 2.82 0 0 -5.93c0,-3.14 -1.83,-4.61 -5,-4.61zm-0.23 8.67c-1.06,0 -1.7,-0.51 -1.7,-1.26 0,-0.69 0.45,-1.21 1.86,-1.21l2.06 0 0 1.06c-0.35,0.94 -1.21,1.41 -2.22,1.41zm11.44 2.02c3.11,0 4.91,-1.37 4.91,-3.3 0,-4.09 -6.28,-2.37 -6.28,-4.15 0,-0.54 0.58,-0.96 1.93,-0.96 0.95,0 1.97,0.19 3,0.77l1 -2.14c-0.99,-0.58 -2.57,-0.91 -4,-0.91 -3.03,0 -4.8,1.39 -4.8,3.36 0,4.15 6.27,2.41 6.27,4.11 0,0.58 -0.52,0.95 -1.91,0.95 -1.27,0 -2.68,-0.41 -3.61,-1.01l-1 2.16c0.96,0.64 2.74,1.12 4.49,1.12z"/>
   <path class="fil1" d="M34.75 8.22c10.39,0 19.1,7.18 21.44,16.86 -9.6,1.05 -17.7,7.08 -21.66,15.45 -3.91,-8.24 -11.82,-14.22 -21.23,-15.4 2.32,-9.7 11.04,-16.91 21.45,-16.91z"/>
   <path class="fil2" d="M31.06 51.15c-11.36,-0.34 -20.98,-9.08 -22.14,-20.69 11.37,0.35 20.98,9.08 22.14,20.69z"/>
   <path class="fil3" d="M39.18 54.89c11.29,-2.67 20.17,-12.24 21.39,-24.43 -13.53,0.41 -25.01,10.59 -26.82,24.26l-2.5 16.41 10.4 0 -2.47 -16.24z"/>
  </g>
  <polygon class="fil4" points="0,0 196.72,0 196.72,81.91 0,81.91 "/>
 </g>
</svg>
